<svg baseProfile="tiny" height="1197" version="1.2" width="1197" xmlns="http://www.w3.org/2000/svg" xmlns:ev="http://www.w3.org/2001/xml-events" xmlns:xlink="http://www.w3.org/1999/xlink">
  <polygon fill="white" points="0,0 1197,0 1197,1197 0,1197" stroke="blue"/>
  <polygon fill="rgb(225, 244, 249)" points="28.5,28.5 1168.5,28.5 1168.5,1168.5 28.5,1168.5" stroke="none"/>
  <defs>
    <g id="base">
      <polyline fill="steelblue" points="725.385,374.8511 614.1283,374.8511 558.5,471.2022 502.8717,374.8511 391.615,374.8511 447.2433,278.5 391.615,182.1489 502.8717,182.1489 558.5,85.7978 614.1283,182.1489 725.385,182.1489 669.7567,278.5 725.385,374.8511" stroke="none"/>
      <polyline fill="steelblue" points="654.8511,445.385 558.5,389.7567 462.1489,445.385 462.1489,334.1283 365.7978,278.5 462.1489,222.8717 462.1489,111.615 558.5,167.2433 654.8511,111.615 654.8511,222.8717 751.2022,278.5 654.8511,334.1283 654.8511,445.385" stroke="none"/>
      <polyline fill="steelblue" points="744.2645,711.5333 558.5,818.7845 372.7355,711.5333 372.7355,497.0309 558.5,389.7797 744.2645,497.0309 744.2645,711.5333 558.5,818.7845" stroke="none"/>
      <polyline fill="steelblue" points="356.3631,435.9092 321.1112,415.5565 321.1112,374.8511 391.615,374.8511 356.3631,435.9092" stroke="none"/>
      <polyline fill="steelblue" points="356.3631,435.9092 321.1112,415.5565 321.1112,374.8511 391.615,374.8511 356.3631,435.9092" stroke="none" transform="rotate(120,558.5,604.2821357901626)"/>
      <polyline fill="steelblue" points="356.3631,435.9092 321.1112,415.5565 321.1112,374.8511 391.615,374.8511 356.3631,435.9092" stroke="none" transform="rotate(240,558.5,604.2821357901626)"/>
      <polyline fill="steelblue" points="725.385,374.8511 795.8888,374.8511 795.8888,415.5565 760.6369,435.9092 725.385,374.8511" stroke="none"/>
      <polyline fill="steelblue" points="725.385,374.8511 795.8888,374.8511 795.8888,415.5565 760.6369,435.9092 725.385,374.8511" stroke="none" transform="rotate(120,558.5,604.2821357901626)"/>
      <polyline fill="steelblue" points="725.385,374.8511 795.8888,374.8511 795.8888,415.5565 760.6369,435.9092 725.385,374.8511" stroke="none" transform="rotate(240,558.5,604.2821357901626)"/>
    </g>
    <g id="star">
      <polyline fill="none" points="725.385,374.8511 614.1283,374.8511 558.5,471.2022 502.8717,374.8511 391.615,374.8511 447.2433,278.5 391.615,182.1489 502.8717,182.1489 558.5,85.7978 614.1283,182.1489 725.385,182.1489 669.7567,278.5 725.385,374.8511" stroke="darksalmon" stroke-width="12"/>
      <polyline fill="none" points="654.8511,445.385 558.5,389.7567 462.1489,445.385 462.1489,334.1283 365.7978,278.5 462.1489,222.8717 462.1489,111.615 558.5,167.2433 654.8511,111.615 654.8511,222.8717 751.2022,278.5 654.8511,334.1283 654.8511,445.385" stroke="darksalmon" stroke-width="12"/>
    </g>
    <g id="join">
      <polyline fill="steelblue" points="725.385,374.8511 840.6356,574.471 875.9026,635.5552 840.6356,655.9165 744.2845,600.2882 654.8711,548.6423 654.8511,445.385 654.8511,334.1283 690.1181,313.767 725.385,374.8511" stroke="darksalmon" stroke-width="12"/>
      <polyline fill="steelblue" points="725.385,374.8511 840.6356,574.471 875.9026,635.5552 840.6356,655.9165 744.2845,600.2882 654.8711,548.6423 654.8511,445.385 654.8511,334.1283 690.1181,313.767 725.385,374.8511" stroke="darksalmon" stroke-width="12" transform="rotate(120,558.5,604.2821357901626)"/>
      <polyline fill="steelblue" points="725.385,374.8511 840.6356,574.471 875.9026,635.5552 840.6356,655.9165 744.2845,600.2882 654.8711,548.6423 654.8511,445.385 654.8511,334.1283 690.1181,313.767 725.385,374.8511" stroke="darksalmon" stroke-width="12" transform="rotate(240,558.5,604.2821357901626)"/>
      <polyline fill="none" points="500.8747,571.0122 614.1283,374.8511 795.8888,374.8511 795.8888,415.5565 558.5,552.613 321.1112,415.5565 321.1112,374.8511 502.8717,374.8511 616.1253,571.0122" stroke="darksalmon" stroke-width="12"/>
      <polyline fill="none" points="616.1253,571.0122 729.3789,767.1732 638.4987,924.5824 603.2468,904.2297 603.2468,630.1167 840.6356,493.0602 875.8875,513.4129 785.0073,670.8221 558.5,670.8221" stroke="darksalmon" stroke-width="12"/>
      <polyline fill="none" points="558.5,670.8221 331.9927,670.8221 241.1125,513.4129 276.3644,493.0602 513.7532,630.1167 513.7532,904.2297 478.5013,924.5824 387.6211,767.1732 500.8747,571.0122" stroke="darksalmon" stroke-width="12"/>
      <polyline fill="none" points="744.2645,711.5333 558.5,818.7845 372.7355,711.5333 372.7355,497.0309 558.5,389.7797 744.2645,497.0309 744.2645,711.5333 558.5,818.7845" stroke="darksalmon" stroke-width="12"/>
    </g>
    <g id="tri_g1">
      <polyline fill="steelblue" points="936.9867,670.8221 1007.5206,670.8221 972.2537,731.9063 936.9867,711.5449 936.9867,670.8221 1007.5206,670.8221" stroke="darksalmon" stroke-width="12"/>
      <polyline fill="steelblue" points="875.9026,898.7913 840.6356,959.8754 805.3687,898.7913 840.6356,878.4299 875.9026,898.7913 840.6356,959.8754" stroke="darksalmon" stroke-width="12"/>
      <polyline fill="steelblue" points="875.9026,898.7913 840.6356,959.8754 805.3687,898.7913 840.6356,878.4299 875.9026,898.7913 840.6356,959.8754" stroke="darksalmon" stroke-width="12" transform="rotate( 90,840.6356056934322,767.1732036852438)"/>
      <polyline fill="steelblue" points="875.9026,898.7913 840.6356,959.8754 805.3687,898.7913 840.6356,878.4299 875.9026,898.7913 840.6356,959.8754" stroke="darksalmon" stroke-width="12" transform="rotate(150,840.6356056934322,767.1732036852438)"/>
      <polyline fill="steelblue" points="936.9867,670.8221 1007.5206,670.8221 972.2537,731.9063 936.9867,711.5449 936.9867,670.8221 1007.5206,670.8221" stroke="darksalmon" stroke-width="12" transform="rotate(120,558.5,604.2821357901626)"/>
      <polyline fill="steelblue" points="875.9026,898.7913 840.6356,959.8754 805.3687,898.7913 840.6356,878.4299 875.9026,898.7913 840.6356,959.8754" stroke="darksalmon" stroke-width="12" transform="rotate(120,558.5,604.2821357901626)"/>
    </g>
    <g id="tri_g2">
      <polyline fill="steelblue" points="875.9026,898.7913 840.6356,959.8754 805.3687,898.7913 840.6356,878.4299 875.9026,898.7913 840.6356,959.8754" stroke="darksalmon" stroke-width="12" transform="rotate( 90,840.6356056934322,767.1732036852438)"/>
      <polyline fill="steelblue" points="875.9026,898.7913 840.6356,959.8754 805.3687,898.7913 840.6356,878.4299 875.9026,898.7913 840.6356,959.8754" stroke="darksalmon" stroke-width="12" transform="rotate(150,840.6356056934322,767.1732036852438)"/>
      <polyline fill="steelblue" points="936.9867,670.8221 1007.5206,670.8221 972.2537,731.9063 936.9867,711.5449 936.9867,670.8221 1007.5206,670.8221" stroke="darksalmon" stroke-width="12" transform="rotate( 30,840.6356056934322,767.1732036852438)"/>
      <polyline fill="steelblue" points="875.9026,898.7913 840.6356,959.8754 805.3687,898.7913 840.6356,878.4299 875.9026,898.7913 840.6356,959.8754" stroke="darksalmon" stroke-width="12" transform="rotate(-30,840.6356056934322,767.1732036852438)"/>
    </g>
    <g id="graph">
      <use xlink:href="#base"/>
      <use xlink:href="#star"/>
      <use xlink:href="#join"/>
      <use xlink:href="#tri_g1"/>
      <use transform="rotate(120,558.5,604.2821357901626)" xlink:href="#tri_g2"/>
    </g>
  </defs>
  <use transform="rotate(-30,558.5,604.2821357901626)" xlink:href="#graph"/>
</svg>
